<svg xmlns="http://www.w3.org/2000/svg" viewBox="227.439 27.182 499.061 493.824"><path fill="#28537B" d="M723.877 274.102c0 136.36-110.551 246.904-246.916 246.904-136.344 0-246.899-110.549-246.899-246.904 0-136.371 110.555-246.92 246.899-246.92 136.365 0 246.916 110.549 246.916 246.92zM476.989 49.884c-123.855 0-224.224 100.386-224.224 224.218 0 123.816 100.369 224.202 224.224 224.202 123.804 0 224.191-100.386 224.191-224.202-.006-123.832-100.387-224.218-224.191-224.218zm-73.298 69.132c-35.672 0-64.602 28.93-64.602 64.574 0 35.672 28.93 64.602 64.602 64.602 35.644 0 64.579-28.93 64.579-64.602 0-35.645-28.936-64.574-64.579-64.574zm134.198 188.871c-16.189 0-29.311 13.115-29.311 29.288s13.127 29.288 29.311 29.288c16.174 0 29.277-13.121 29.277-29.288 0-16.173-13.104-29.288-29.277-29.288zm70.677-147.705c-23.273 0-42.123 18.877-42.123 42.117 0 23.263 18.85 42.124 42.123 42.124 23.24 0 42.123-18.861 42.123-42.124.006-23.24-18.877-42.117-42.123-42.117zM330.297 298.4c-12.6 0-22.803 10.226-22.803 22.809 0 12.589 10.203 22.81 22.803 22.81 12.628 0 22.826-10.221 22.826-22.81 0-12.583-10.198-22.809-22.826-22.809zm124.594 80.109c-27.3 0-49.459 22.153-49.459 49.47 0 27.301 22.159 49.46 49.459 49.46 27.328 0 49.458-22.159 49.458-49.46.001-27.317-22.13-49.47-49.458-49.47z"/></svg>