<svg xmlns="http://www.w3.org/2000/svg" width="300" height="300"><path fill="#FFF" d="M22.884 195.866c-11.791 0-21.384 9.594-21.384 21.382 0 11.787 9.593 21.381 21.384 21.381s21.385-9.59 21.385-21.381-9.591-21.382-21.385-21.382zm0 32.889c-6.349 0-11.513-5.166-11.513-11.507 0-6.343 5.164-11.511 11.513-11.511 6.346 0 11.514 5.168 11.514 11.511 0 6.341-5.164 11.507-11.514 11.507zm132.083 22.354c-11.791 0-21.381 9.59-21.381 21.38 0 11.791 9.59 21.381 21.381 21.381 11.794 0 21.384-9.59 21.384-21.381 0-11.79-9.59-21.38-21.384-21.38zm0 32.884c-6.347 0-11.515-5.164-11.515-11.506 0-6.345 5.168-11.51 11.515-11.51 6.349 0 11.514 5.165 11.514 11.51-.001 6.342-5.166 11.506-11.514 11.506zm-21.861-132.254c-13.177 0-23.901 10.719-23.901 23.896 0 13.171 10.725 23.9 23.901 23.9 13.182 0 23.906-10.729 23.906-23.9.001-13.177-10.724-23.896-23.906-23.896zm0 28.059a4.168 4.168 0 0 1-4.161-4.162 4.163 4.163 0 0 1 8.327 0 4.171 4.171 0 0 1-4.166 4.162zm-100.174 9.787L117.01 60.343a4.931 4.931 0 0 1 6.825-1.445 4.923 4.923 0 0 1 1.445 6.825L41.203 194.964a4.929 4.929 0 0 1-6.822 1.444 4.928 4.928 0 0 1-1.449-6.823zm119.211-49.855L275.477 9.219c3.743-3.962 9.984-4.135 13.955-.396 3.954 3.739 4.128 9.986.387 13.949L166.49 153.284a9.834 9.834 0 0 1-7.17 3.096 9.847 9.847 0 0 1-6.782-2.701c-3.96-3.741-4.135-9.989-.395-13.949zm144.561 25.689L181.991 259.85a4.916 4.916 0 0 1-3.132 1.128 4.917 4.917 0 0 1-3.817-1.8 4.933 4.933 0 0 1 .674-6.943l114.703-94.434a4.941 4.941 0 0 1 6.958.678 4.933 4.933 0 0 1-.673 6.94zm-163.598 48.463c-21.086 0-38.242-17.156-38.242-38.246.002-8.552 2.765-16.639 7.985-23.396.02-.029.05-.029.063-.06l84.85-117.94a4.938 4.938 0 0 1 6.894-1.128c2.206 1.601 2.716 4.676 1.118 6.89l-85.001 118.16c-.029.039-.069.05-.099.088l-.014.027c-3.87 5.012-5.917 11.018-5.923 17.362 0 15.642 12.728 28.377 28.373 28.377 9.035 0 17.326-4.155 22.741-11.393.09-.125.225-.185.333-.29.088-.116.135-.251.242-.348L262.238 92.61a4.955 4.955 0 0 1 6.977.21 4.936 4.936 0 0 1-.218 6.979l-105.823 99.373c-.02.02-.05.029-.07.039-7.295 9.291-18.136 14.671-29.998 14.671z"/></svg>