<?xml version="1.0" encoding="utf-8"?>
<!-- Generator: Adobe Illustrator 16.0.4, SVG Export Plug-In . SVG Version: 6.00 Build 0)  -->
<!DOCTYPE svg PUBLIC "-//W3C//DTD SVG 1.1//EN" "http://www.w3.org/Graphics/SVG/1.1/DTD/svg11.dtd">
<svg version="1.1" id="Layer_1" xmlns="http://www.w3.org/2000/svg" xmlns:xlink="http://www.w3.org/1999/xlink" x="0px" y="0px"
	 width="300px" height="300px" viewBox="0 0 300 300" enable-background="new 0 0 300 300" xml:space="preserve">
<path fill="#FFFFFF" d="M22.884,195.866c-11.791,0-21.384,9.594-21.384,21.382c0,11.787,9.593,21.381,21.384,21.381
	c11.791,0,21.385-9.59,21.385-21.381S34.678,195.866,22.884,195.866z M22.884,228.755c-6.349,0-11.513-5.166-11.513-11.507
	c0-6.343,5.164-11.511,11.513-11.511c6.346,0,11.514,5.168,11.514,11.511C34.398,223.589,29.234,228.755,22.884,228.755z
	 M154.967,251.109c-11.791,0-21.381,9.59-21.381,21.38c0,11.791,9.59,21.381,21.381,21.381c11.794,0,21.384-9.59,21.384-21.381
	C176.351,260.699,166.761,251.109,154.967,251.109z M154.967,283.993c-6.347,0-11.515-5.164-11.515-11.506
	c0-6.345,5.168-11.51,11.515-11.51c6.349,0,11.514,5.165,11.514,11.51C166.48,278.829,161.315,283.993,154.967,283.993z
	 M133.106,151.739c-13.177,0-23.901,10.719-23.901,23.896c0,13.171,10.725,23.9,23.901,23.9c13.182,0,23.906-10.729,23.906-23.9
	C157.013,162.458,146.288,151.739,133.106,151.739z M133.106,179.798c-2.293,0-4.161-1.869-4.161-4.162
	c0-2.294,1.865-4.159,4.161-4.159c2.295,0,4.166,1.861,4.166,4.159C137.272,177.929,135.401,179.798,133.106,179.798z
	 M32.932,189.585L117.01,60.343c1.485-2.284,4.537-2.931,6.825-1.445c2.288,1.485,2.937,4.541,1.445,6.825L41.203,194.964
	c-0.944,1.451-2.525,2.242-4.139,2.242c-0.921,0-1.858-0.257-2.683-0.798C32.095,194.922,31.444,191.867,32.932,189.585z
	 M152.143,139.73L275.477,9.219c3.743-3.962,9.984-4.135,13.955-0.396c3.954,3.739,4.128,9.986,0.387,13.949L166.49,153.284
	c-1.937,2.057-4.56,3.096-7.17,3.096c-2.434,0-4.875-0.898-6.782-2.701C148.578,149.938,148.403,143.69,152.143,139.73z
	 M296.704,165.419L181.991,259.85c-0.925,0.76-2.033,1.128-3.132,1.128c-1.43,0-2.846-0.614-3.817-1.8
	c-1.733-2.103-1.427-5.217,0.674-6.943l114.703-94.434c2.125-1.741,5.227-1.424,6.958,0.678
	C299.104,160.581,298.807,163.691,296.704,165.419z M133.106,213.882c-21.086,0-38.242-17.156-38.242-38.246
	c0.002-8.552,2.765-16.639,7.985-23.396c0.02-0.029,0.05-0.029,0.063-0.06l84.85-117.94c1.59-2.218,4.677-2.719,6.894-1.128
	c2.206,1.601,2.716,4.676,1.118,6.89l-85.001,118.16c-0.029,0.039-0.069,0.05-0.099,0.088l-0.014,0.027
	c-3.87,5.012-5.917,11.018-5.923,17.362c0,15.642,12.728,28.377,28.373,28.377c9.035,0,17.326-4.155,22.741-11.393
	c0.09-0.125,0.225-0.185,0.333-0.29c0.088-0.116,0.135-0.251,0.242-0.348l105.812-99.375c1.985-1.859,5.108-1.763,6.977,0.21
	c1.872,1.994,1.765,5.119-0.218,6.979l-105.823,99.373c-0.02,0.02-0.05,0.029-0.07,0.039
	C155.809,208.502,144.968,213.882,133.106,213.882z"/>
<g>
</g>
<g>
</g>
<g>
</g>
<g>
</g>
<g>
</g>
<g>
</g>
<g>
</g>
<g>
</g>
<g>
</g>
<g>
</g>
<g>
</g>
<g>
</g>
<g>
</g>
<g>
</g>
<g>
</g>
</svg>
