<?xml version="1.0" encoding="utf-8"?>
<!-- Generator: Adobe Illustrator 16.0.4, SVG Export Plug-In . SVG Version: 6.00 Build 0)  -->
<!DOCTYPE svg PUBLIC "-//W3C//DTD SVG 1.1//EN" "http://www.w3.org/Graphics/SVG/1.1/DTD/svg11.dtd">
<svg version="1.1" id="Layer_1" xmlns="http://www.w3.org/2000/svg" xmlns:xlink="http://www.w3.org/1999/xlink" x="0px" y="0px"
	 width="1792px" height="1792px" viewBox="0 0 1792 1792" enable-background="new 0 0 1792 1792" xml:space="preserve">
<path fill="#FFFFFF" d="M1376,128c79.333,0,147.167,28.167,203.5,84.5S1664,336.667,1664,416v960
	c0,79.333-28.167,147.167-84.5,203.5S1455.333,1664,1376,1664h-188v-595h199l30-232h-229V689c0-37.333,7.833-65.333,23.5-84
	s46.167-28,91.5-28l122-1V369c-42-6-101.333-9-178-9c-90.667,0-163.167,26.667-217.5,80S948,568.667,948,666v171H748v232h200v595
	H416c-79.333,0-147.167-28.167-203.5-84.5S128,1455.333,128,1376V416c0-79.333,28.167-147.167,84.5-203.5S336.667,128,416,128H1376z
	"/>
</svg>
