<?xml version="1.0" encoding="utf-8"?>
<!-- Generator: Adobe Illustrator 16.0.4, SVG Export Plug-In . SVG Version: 6.00 Build 0)  -->
<!DOCTYPE svg PUBLIC "-//W3C//DTD SVG 1.1//EN" "http://www.w3.org/Graphics/SVG/1.1/DTD/svg11.dtd">
<svg version="1.1" id="Layer_1" xmlns="http://www.w3.org/2000/svg" xmlns:xlink="http://www.w3.org/1999/xlink" x="0px" y="0px"
	 width="1792px" height="1792px" viewBox="0 0 1792 1792" enable-background="new 0 0 1792 1792" xml:space="preserve">
<path fill="#FFFFFF" d="M522,1352c-5.333,6-12,5-20-3c-8.667-7.333-10-13.667-4-19c5.333-6,12-5,20,3
	C526,1340.333,527.333,1346.667,522,1352z M480,1291c6,8,6,14.333,0,19c-5.333,4-11,1.667-17-7s-6-14.667,0-18
	C469,1280.333,474.667,1282.333,480,1291z M419,1231c-3.333,4.667-7.667,5.333-13,2c-6.667-3.333-9-7.333-7-12c2-3.333,6.333-4,13-2
	C418.667,1222.333,421,1226.333,419,1231z M450,1265c-4,4.667-9.333,3.667-16-3c-6-7.333-6.667-12.667-2-16c4-4,9.333-3,16,3
	C454,1256.333,454.667,1261.667,450,1265z M579,1377c-2.667,8-9,10-19,6c-11.333-2.667-15.667-7.667-13-15s9-9.667,19-7
	C576.667,1364.333,581,1369.667,579,1377z M642,1382c0,7.333-5.333,11-16,11c-11.333,1.333-17-2.333-17-11c0-7.333,5.333-11,16-11
	C636.333,1369.667,642,1373.333,642,1382z M700,1372c1.333,6.667-3.333,11.333-14,14s-16.667,0-18-8s3.333-13,14-15
	C692.667,1361.667,698.667,1364.667,700,1372z M1664,416v960c0,79.333-28.167,147.167-84.5,203.5S1455.333,1664,1376,1664h-224
	c-10.667,0-18.833-0.333-24.5-1s-12.167-2.333-19.5-5s-12.667-7.5-16-14.5s-5-16.167-5-27.5v-239c0-64.667-17.333-112-52-142
	c38-4,72.167-10,102.5-18s61.667-21,94-39s59.333-40.167,81-66.5s39.333-61.333,53-105S1386,912.667,1386,856
	c0-80.667-26.333-149.333-79-206c24.667-60.667,22-128.667-8-204c-18.667-6-45.667-2.333-81,11s-66,28-92,44l-38,24
	c-62-17.333-126-26-192-26s-130,8.667-192,26c-10.667-7.333-24.833-16.333-42.5-27S616,474.5,578,459.5S511.333,440,492,446
	c-29.333,75.333-31.667,143.333-7,204c-52.667,56.667-79,125.333-79,206c0,56.667,6.833,106.667,20.5,150s31.167,78.333,52.5,105
	s48.167,49,80.5,67s63.667,31,94,39s64.5,14,102.5,18c-26.667,24-43,58.333-49,103c-14,6.667-29,11.667-45,15s-35,5-57,5
	s-43.833-7.167-65.5-21.5s-40.167-35.167-55.5-62.5c-12.667-21.333-28.833-38.667-48.5-52s-36.167-21.333-49.5-24l-20-3
	c-14,0-23.667,1.5-29,4.5s-7,6.833-5,11.5s5,9.333,9,14s8.333,8.667,13,12l7,5c14.667,6.667,29.167,19.333,43.5,38
	c14.333,18.667,24.833,35.667,31.5,51l10,23c8.667,25.333,23.333,45.833,44,61.5s43,25.667,67,30s47.167,6.667,69.5,7
	s40.833-0.833,55.5-3.5l23-4c0,25.333,0.167,59.667,0.5,103s0.5,66,0.5,68c0,14.667-3.667,25.833-11,33.5s-14.667,12-22,13
	s-18.333,1.5-33,1.5H416c-79.333,0-147.167-28.167-203.5-84.5S128,1455.333,128,1376V416c0-79.333,28.167-147.167,84.5-203.5
	S336.667,128,416,128h960c79.333,0,147.167,28.167,203.5,84.5S1664,336.667,1664,416z"/>
</svg>
