<svg xmlns="http://www.w3.org/2000/svg" viewBox="224.298 0 518.761 560"><g fill="#28537B"><path d="M483.813 30.162c51.486 0 100.761 19.141 138.662 53.895 37.682 34.563 61.084 81.513 65.788 132.182l.112 1.395.274 1.395c.33 1.971.549 3.746.549 5.443V387.74c0 20.508-17.556 45.612-36.697 52.556-.549.163-53.485 18.268-168.683 18.268-115.226 0-168.163-18.099-168.549-18.211-19.275-7-36.832-32.1-36.832-52.612V224.465c0-1.697.19-3.472.549-5.443l.274-1.395.112-1.394c4.732-50.669 28.084-97.619 65.789-132.183 37.92-34.748 87.166-53.888 138.652-53.888m0-30.162C361.179 0 260.475 93.733 249.342 213.444c-.655 3.584-1.064 7.274-1.064 11.021v163.268c0 33.197 25.514 69.619 56.711 80.938 0 0 55.154 20.07 178.831 20.07 123.676 0 178.853-20.07 178.853-20.07 31.17-11.318 56.655-47.74 56.655-80.938V224.465c0-3.747-.381-7.437-1.042-11.021C707.131 93.733 606.453 0 483.813 0z"/><path d="M483.68 418.634c-86.515 0-124.578-9.789-126.163-10.17-24.662-6.507-43.993-31.556-43.993-57.092V248.937c0-26.606 21.655-48.233 48.261-48.233h244.07c26.577 0 48.232 21.627 48.232 48.233v102.429c0 25.542-19.303 50.585-43.971 57.042-1.64.437-39.923 10.226-126.436 10.226zM361.778 224.817c-13.317 0-24.147 10.831-24.147 24.12v102.429c0 14.331 12.168 30.078 26.029 33.74.33.112 37.218 9.408 120.014 9.408 82.852 0 119.93-9.353 120.311-9.459 13.837-3.611 25.979-19.359 25.979-33.689V248.937c0-13.289-10.831-24.12-24.12-24.12H361.778z"/><path d="M506.404 343.549c-5.634-5.908 7.957-28.112 30.436-49.492 22.423-21.41 45.226-33.987 50.859-28.057s4.373 34.646-21.274 59.119c-25.654 24.444-54.365 24.332-60.021 18.43zM558.602 357.6c-2.57-2.733 3.662-12.853 13.888-22.585 10.226-9.789 20.619-15.529 23.24-12.796 2.57 2.682 1.972 15.803-9.732 26.958s-24.826 11.104-27.396 8.423zM239.391 414.092c-8.339 0-15.092-6.781-15.092-15.092V244.373c0-8.339 6.753-15.092 15.092-15.092 8.338 0 15.092 6.753 15.092 15.092V399c-.001 8.311-6.754 15.092-15.092 15.092zM727.968 414.092c-8.311 0-15.041-6.781-15.041-15.092V244.373c0-8.339 6.726-15.092 15.041-15.092 8.366 0 15.092 6.753 15.092 15.092V399c0 8.311-6.726 15.092-15.092 15.092zM489.94 560c-125.944 0-183.669-20.451-186.077-21.33-10.965-3.993-16.599-16.134-12.605-27.07 3.965-10.938 16.021-16.57 26.958-12.634.711.218 54.606 18.811 171.719 18.811 117.275 0 171.147-18.648 171.69-18.811 10.937-3.937 23.021 1.803 26.958 12.74 3.937 10.937-1.696 22.971-12.634 26.958-2.341.885-60.088 21.336-186.009 21.336zM417.264 137.374c11.647 0 21.111 9.436 21.111 21.112 0 11.648-9.458 21.112-21.111 21.112-11.654 0-21.112-9.458-21.112-21.112-.001-11.676 9.463-21.112 21.112-21.112zM363.722 137.346c11.676 0 21.134 9.458 21.134 21.134 0 11.648-9.458 21.112-21.134 21.112-11.648 0-21.112-9.458-21.112-21.112.005-11.67 9.464-21.134 21.112-21.134z"/></g></svg>