<?xml version="1.0" encoding="utf-8"?>
<!-- Generator: Adobe Illustrator 16.0.4, SVG Export Plug-In . SVG Version: 6.00 Build 0)  -->
<!DOCTYPE svg PUBLIC "-//W3C//DTD SVG 1.1//EN" "http://www.w3.org/Graphics/SVG/1.1/DTD/svg11.dtd">
<svg version="1.1" id="Layer_1" xmlns="http://www.w3.org/2000/svg" xmlns:xlink="http://www.w3.org/1999/xlink" x="0px" y="0px"
	 width="1792px" height="1792px" viewBox="0 0 1792 1792" enable-background="new 0 0 1792 1792" xml:space="preserve">
<path fill="#FFFFFF" d="M1490,1426V778h-135c13.333,42,20,85.667,20,131c0,84-21.333,161.5-64,232.5s-100.667,127.167-174,168.5
	s-153.333,62-240,62c-131.333,0-243.667-45.167-337-135.5S420,1037,420,909c0-45.333,6.667-89,20-131H299v648
	c0,17.333,5.833,31.833,17.5,43.5s26.167,17.5,43.5,17.5h1069c16.667,0,31-5.833,43-17.5S1490,1443.333,1490,1426z M1206,893
	c0-82.667-30.167-153.167-90.5-211.5S982.333,594,897,594c-84.667,0-157.167,29.167-217.5,87.5S589,810.333,589,893
	s30.167,153.167,90.5,211.5S812.333,1192,897,1192c85.333,0,158.167-29.167,218.5-87.5S1206,975.667,1206,893z M1490,533V368
	c0-18.667-6.667-34.833-20-48.5c-13.333-13.667-29.667-20.5-49-20.5h-174c-19.333,0-35.667,6.833-49,20.5
	c-13.333,13.667-20,29.833-20,48.5v165c0,19.333,6.667,35.667,20,49s29.667,20,49,20h174c19.333,0,35.667-6.667,49-20
	S1490,552.333,1490,533z M1664,325v1142c0,54-19.333,100.333-58,139s-85,58-139,58H325c-54,0-100.333-19.333-139-58s-58-85-58-139
	V325c0-54,19.333-100.333,58-139s85-58,139-58h1142c54,0,100.333,19.333,139,58S1664,271,1664,325z"/>
</svg>
