<?xml version="1.0" encoding="utf-8"?>
<!-- Generator: Adobe Illustrator 16.0.4, SVG Export Plug-In . SVG Version: 6.00 Build 0)  -->
<!DOCTYPE svg PUBLIC "-//W3C//DTD SVG 1.1//EN" "http://www.w3.org/Graphics/SVG/1.1/DTD/svg11.dtd">
<svg version="1.1" id="Layer_1" xmlns="http://www.w3.org/2000/svg" xmlns:xlink="http://www.w3.org/1999/xlink" x="0px" y="0px"
	 width="922.339px" height="155.077px" viewBox="0 202.461 922.339 155.077" enable-background="new 0 202.461 922.339 155.077"
	 xml:space="preserve">
<g>
	<g>
		<rect x="307.2" y="202.461" fill="none" width="615.139" height="155.077"/>
		<path fill="#FFFFFF" d="M72.369,256.369H55.385v22.154h16.984c8.123,0,13.292-4.431,13.292-11.077
			C85.662,260.062,80.492,256.369,72.369,256.369z"/>
		<path fill="#FFFFFF" d="M228.185,256.369h-13.292v46.523h13.292c14.031,0,23.631-9.6,23.631-22.893
			C251.815,265.969,242.215,256.369,228.185,256.369z"/>
		<path fill="#FFFFFF" d="M0,202.461v155.077h307.2V202.461H0z M86.4,319.139l-16.246-25.107H55.385v25.107H38.4v-78.277h35.446
			c9.6,0,17.723,2.954,22.892,8.123c4.431,4.431,6.646,10.339,6.646,17.723c0,12.554-6.646,20.677-16.246,24.37l19.2,28.062H86.4z
			 M180.185,319.139h-59.077v-78.277h0h58.338v15.508h-41.354v15.508h36.185v15.508h-36.185v16.246h42.092V319.139z M228.185,318.4
			h-30.277v-77.539h30.277c24.369,0,41.354,16.985,41.354,38.4C269.539,301.416,252.554,318.4,228.185,318.4z"/>
		<path fill="none" d="M103.385,266.708c0-7.384-2.215-13.292-6.646-17.723c-5.169-5.169-13.292-8.123-22.892-8.123H38.4v78.277
			h16.985v-25.107h14.769L86.4,319.139h19.938l-19.2-28.062C96.738,287.385,103.385,279.262,103.385,266.708z M72.369,278.523
			H55.385v-22.154h16.984c8.123,0,13.292,3.692,13.292,11.077C85.662,274.092,80.492,278.523,72.369,278.523z"/>
		<polygon fill="none" points="138.092,287.385 174.277,287.385 174.277,271.877 138.092,271.877 138.092,256.369 179.446,256.369 
			179.446,240.861 121.108,240.861 121.107,240.861 121.107,319.139 180.185,319.139 180.185,303.631 138.092,303.631 		"/>
		<path fill="none" d="M228.185,240.861h-30.277V318.4h30.277c24.369,0,41.354-16.984,41.354-39.139
			C269.539,257.846,252.554,240.861,228.185,240.861z M228.185,302.893h-13.292v-46.523h13.292c14.031,0,23.631,9.6,23.631,23.631
			C251.815,293.293,242.215,302.893,228.185,302.893z"/>
	</g>
	<g>
		<path fill="#FFFFFF" d="M379.569,240.861h12.554l33.97,77.539h-14.031l-8.123-18.462h-36.185l-8.123,18.462H345.6L379.569,240.861
			z M398.77,288.123l-13.292-31.015l-13.292,31.015H398.77z"/>
		<path fill="#FFFFFF" d="M430.523,280.738L430.523,280.738c0-22.154,16.246-39.877,39.877-39.877
			c14.03,0,22.892,5.169,30.276,11.815l-8.861,10.339c-5.907-5.908-12.554-9.6-21.415-9.6c-14.77,0-25.108,11.815-25.108,27.323l0,0
			c0,14.77,10.339,27.323,25.108,27.323c9.6,0,15.508-3.692,22.153-9.601l8.861,8.862c-8.123,8.123-16.984,13.292-31.015,13.292
			C447.508,319.877,430.523,302.893,430.523,280.738z"/>
		<path fill="#FFFFFF" d="M542.031,240.861h12.554l33.969,77.539h-14.03l-8.123-18.462h-36.186l-8.123,18.462h-14.03
			L542.031,240.861z M561.23,288.123l-13.292-31.015l-13.292,31.015H561.23z"/>
		<path fill="#FFFFFF" d="M601.107,241.6h28.801c24.369,0,40.615,16.246,40.615,38.4l0,0c0,21.416-16.985,38.4-40.615,38.4h-28.801
			V241.6z M615.139,254.154v52.431h14.77c16.246,0,26.584-11.077,26.584-25.847l0,0c0-14.769-10.338-25.846-26.584-25.846h-14.77
			V254.154z"/>
		<path fill="#FFFFFF" d="M686.77,241.6h56.861v12.554h-43.569v19.938h38.4v11.816h-38.4v20.677h44.308V318.4h-57.6V241.6z"/>
		<path fill="#FFFFFF" d="M760.615,241.6h14.031l23.631,36.185l23.63-36.185h14.031v76.8h-13.292v-54.646l-24.369,36.185h-0.739
			l-24.369-36.185V318.4h-12.554V241.6z"/>
		<path fill="#FFFFFF" d="M878.031,288.123L847.754,241.6H864l21.415,33.969l21.416-33.969h15.508l-30.277,46.523v31.016H878.77
			v-31.016H878.031z"/>
	</g>
</g>
</svg>
