<svg xmlns="http://www.w3.org/2000/svg" viewBox="0 202.461 922.339 155.077"><path fill="none" d="M307.2 202.461h615.139v155.077H307.2z"/><path fill="#FFF" d="M72.369 256.369H55.385v22.154h16.984c8.123 0 13.292-4.431 13.292-11.077.001-7.384-5.169-11.077-13.292-11.077zM228.185 256.369h-13.292v46.523h13.292c14.031 0 23.631-9.6 23.631-22.893-.001-14.03-9.601-23.63-23.631-23.63z"/><path fill="#FFF" d="M0 202.461v155.077h307.2V202.461H0zm86.4 116.678l-16.246-25.107H55.385v25.107H38.4v-78.277h35.446c9.6 0 17.723 2.954 22.892 8.123 4.431 4.431 6.646 10.339 6.646 17.723 0 12.554-6.646 20.677-16.246 24.37l19.2 28.062H86.4zm93.785 0h-59.077v-78.277h58.338v15.508h-41.354v15.508h36.185v15.508h-36.185v16.246h42.092v15.507zm48-.739h-30.277v-77.539h30.277c24.369 0 41.354 16.985 41.354 38.4 0 22.155-16.985 39.139-41.354 39.139z"/><path fill="none" d="M103.385 266.708c0-7.384-2.215-13.292-6.646-17.723-5.169-5.169-13.292-8.123-22.892-8.123H38.4v78.277h16.985v-25.107h14.769L86.4 319.139h19.938l-19.2-28.062c9.6-3.692 16.247-11.815 16.247-24.369zm-31.016 11.815H55.385v-22.154h16.984c8.123 0 13.292 3.692 13.292 11.077.001 6.646-5.169 11.077-13.292 11.077zM138.092 287.385h36.185v-15.508h-36.185v-15.508h41.354v-15.508h-58.339v78.278h59.078v-15.508h-42.093zM228.185 240.861h-30.277V318.4h30.277c24.369 0 41.354-16.984 41.354-39.139 0-21.415-16.985-38.4-41.354-38.4zm0 62.032h-13.292V256.37h13.292c14.031 0 23.631 9.6 23.631 23.631-.001 13.292-9.601 22.892-23.631 22.892z"/><g fill="#FFF"><path d="M379.569 240.861h12.554l33.97 77.539h-14.031l-8.123-18.462h-36.185l-8.123 18.462H345.6l33.969-77.539zm19.201 47.262l-13.292-31.015-13.292 31.015h26.584zM430.523 280.738c0-22.154 16.246-39.877 39.877-39.877 14.03 0 22.892 5.169 30.276 11.815l-8.861 10.339c-5.907-5.908-12.554-9.6-21.415-9.6-14.77 0-25.108 11.815-25.108 27.323 0 14.77 10.339 27.323 25.108 27.323 9.6 0 15.508-3.692 22.153-9.601l8.861 8.862c-8.123 8.123-16.984 13.292-31.015 13.292-22.891-.737-39.876-17.721-39.876-39.876zM542.031 240.861h12.554l33.969 77.539h-14.03l-8.123-18.462h-36.186l-8.123 18.462h-14.03l33.969-77.539zm19.199 47.262l-13.292-31.015-13.292 31.015h26.584zM601.107 241.6h28.801c24.369 0 40.615 16.246 40.615 38.4 0 21.416-16.985 38.4-40.615 38.4h-28.801v-76.8zm14.032 12.554v52.431h14.77c16.246 0 26.584-11.077 26.584-25.847 0-14.769-10.338-25.846-26.584-25.846h-14.77v-.738zM686.77 241.6h56.861v12.554h-43.569v19.938h38.4v11.816h-38.4v20.677h44.308V318.4h-57.6v-76.8zM760.615 241.6h14.031l23.631 36.185 23.63-36.185h14.031v76.8h-13.292v-54.646l-24.369 36.185h-.739l-24.369-36.185V318.4h-12.554v-76.8zM878.031 288.123L847.754 241.6H864l21.415 33.969 21.416-33.969h15.508l-30.277 46.523v31.016H878.77v-31.016h-.739z"/></g></svg>