<?xml version="1.0" encoding="utf-8"?>
<!-- Generator: Adobe Illustrator 16.0.4, SVG Export Plug-In . SVG Version: 6.00 Build 0)  -->
<!DOCTYPE svg PUBLIC "-//W3C//DTD SVG 1.1//EN" "http://www.w3.org/Graphics/SVG/1.1/DTD/svg11.dtd">
<svg version="1.1" id="Layer_1" xmlns="http://www.w3.org/2000/svg" xmlns:xlink="http://www.w3.org/1999/xlink" x="0px" y="0px"
	 width="563.535px" height="560px" viewBox="196.5 0 563.535 560" enable-background="new 196.5 0 563.535 560"
	 xml:space="preserve">
<g>
	<path fill="#28537B" d="M428.188,475.575c-27.23,0-63.572-19.425-94.838-50.691c-20.802-20.802-36.727-44.252-44.847-66.034
		c-9.229-24.768-7.49-45.243,4.912-57.633c7.035-7.047,17.01-10.757,28.84-10.757c27.23,0,63.572,19.425,94.839,50.691
		c20.801,20.802,36.727,44.252,44.847,66.033c9.228,24.769,7.489,45.244-4.912,57.634
		C449.993,471.854,440.019,475.575,428.188,475.575z M322.267,313.782c-5.588,0-9.73,1.317-12.343,3.92
		c-5.402,5.401-5.238,17.744,0.455,32.993c6.965,18.713,20.988,39.188,39.48,57.68c30.298,30.299,61.18,43.855,78.342,43.855
		c5.588,0,9.729-1.318,12.343-3.92c5.402-5.402,5.238-17.745-0.455-32.994c-6.965-18.713-20.988-39.188-39.479-57.68
		C370.31,327.35,339.428,313.782,322.267,313.782z"/>
	<path fill="#28537B" d="M499.81,375.358c-2.986,0-5.973-1.144-8.248-3.418c-4.562-4.562-4.562-11.936,0-16.497l0,0
		c3.419-3.418,3.477-11.655,0.14-21.502c-4.352-12.868-14.022-27.416-26.518-39.911c-20.021-20.031-40.997-28.991-52.896-28.991
		c-2.695,0-6.358,0.455-8.506,2.613c-4.538,4.55-11.888,4.562-16.461,0.046l-0.968-0.957c-2.205-2.193-3.453-5.157-3.465-8.26
		c-0.012-3.104,1.213-6.09,3.418-8.284l89.506-89.506c1.703-1.704,3.885-2.824,6.219-3.244c5.495-3.453,12.203-5.25,19.763-5.25
		c20.697,0,47.297,13.732,69.382,35.829c15.179,15.167,26.577,32.55,32.13,48.93c6.476,19.145,4.434,35.304-5.763,45.488
		l-89.437,89.448c-0.012,0.012-0.023,0.035-0.047,0.047C505.771,374.215,502.797,375.358,499.81,375.358z M426.019,243.479
		c17.955,4.375,38.208,16.602,55.661,34.055c15.155,15.167,26.577,32.538,32.119,48.918c0.595,1.75,1.119,3.477,1.562,5.168
		l65.684-65.683c3.43-3.43,3.488-11.667,0.163-21.513c-4.352-12.868-14.022-27.417-26.518-39.912
		c-26.647-26.646-54.426-33.39-61.438-26.367c-1.353,1.354-3.01,2.345-4.807,2.905L426.019,243.479z"/>
	<path fill="#28537B" d="M374.615,326.813c-2.987,0-5.974-1.144-8.249-3.418c-4.562-4.562-4.562-11.936,0-16.497l54.997-55.008
		c4.562-4.562,11.936-4.562,16.497,0c4.562,4.55,4.562,11.935,0,16.497l-54.997,55.008
		C380.588,325.67,377.602,326.813,374.615,326.813z"/>
	<path fill="#28537B" d="M443.087,395.309c-2.987,0-5.974-1.144-8.249-3.419c-4.562-4.562-4.562-11.935,0-16.496l55.009-55.009
		c4.562-4.562,11.935-4.562,16.497,0c4.562,4.562,4.562,11.936,0,16.497l-55.009,55.008
		C449.06,394.165,446.073,395.309,443.087,395.309z"/>
	<path fill="#28537B" d="M312.548,457.34c-2.987,0-5.973-1.144-8.26-3.418c-4.55-4.562-4.55-11.946,0-16.497l52.278-52.243
		c4.562-4.562,11.947-4.562,16.509,0c4.55,4.562,4.55,11.946,0,16.497l-52.278,52.243
		C318.521,456.196,315.535,457.34,312.548,457.34z"/>
	<path fill="#28537B" d="M336.535,514.623c-23.124,0-46.83-10.185-64.785-28.151c-16.077-16.088-25.958-36.575-27.813-57.691
		c-0.56-6.429,4.177-12.087,10.605-12.646c6.499-0.537,12.075,4.177,12.635,10.593c1.376,15.681,8.867,31.033,21.082,43.248
		c15.155,15.167,35.315,23.042,54.005,21.023c6.347-0.699,12.157,3.932,12.845,10.36c0.688,6.405-3.943,12.156-10.349,12.845
		C342.03,514.495,339.277,514.623,336.535,514.623z"/>
	<path fill="#28537B" d="M322.838,560.019c-31.757,0-63.28-13.207-87.337-37.264c-24.698-24.71-38.255-57.972-37.193-91.245
		c0.21-6.439,5.787-11.899,12.029-11.281c6.44,0.21,11.491,5.588,11.293,12.028c-0.852,26.856,10.208,53.83,30.38,74.002
		c23.894,23.904,56.595,34.708,87.477,28.898c6.335-1.179,12.425,2.975,13.626,9.298c1.19,6.335-2.975,12.437-9.31,13.627
		C336.85,559.377,329.838,560.019,322.838,560.019z"/>
	<path fill="#28537B" d="M385.068,237.727c-2.987,0-5.973-1.143-8.249-3.418L243.318,100.807c-2.182-2.182-3.418-5.157-3.418-8.248
		c0-3.092,1.225-6.067,3.418-8.249l80.908-80.908c4.562-4.562,11.935-4.562,16.497,0l133.501,133.501
		c2.193,2.193,3.419,5.157,3.419,8.249c0,3.091-1.226,6.066-3.419,8.248l-80.919,80.909
		C391.042,236.584,388.055,237.727,385.068,237.727z M268.063,92.559l117.005,117.005l64.412-64.412L332.475,28.147L268.063,92.559z
		"/>
	<path fill="#28537B" d="M665.698,518.333L665.698,518.333c-3.104,0-6.066-1.225-8.248-3.418L523.96,381.401
		c-4.562-4.562-4.562-11.935,0-16.496l80.908-80.908c4.562-4.562,11.936-4.562,16.497,0l133.502,133.501
		c2.192,2.193,3.418,5.146,3.418,8.249c0,3.103-1.226,6.066-3.418,8.248l-80.921,80.92
		C671.765,517.097,668.802,518.333,665.698,518.333z M548.705,373.153l116.993,117.005l64.412-64.411L613.117,308.753
		L548.705,373.153z"/>
</g>
</svg>
