<svg xmlns="http://www.w3.org/2000/svg" viewBox="196.5 0 563.535 560"><g fill="#28537B"><path d="M428.188 475.575c-27.23 0-63.572-19.425-94.838-50.691-20.802-20.802-36.727-44.252-44.847-66.034-9.229-24.768-7.49-45.243 4.912-57.633 7.035-7.047 17.01-10.757 28.84-10.757 27.23 0 63.572 19.425 94.839 50.691 20.801 20.802 36.727 44.252 44.847 66.033 9.228 24.769 7.489 45.244-4.912 57.634-7.036 7.036-17.01 10.757-28.841 10.757zM322.267 313.782c-5.588 0-9.73 1.317-12.343 3.92-5.402 5.401-5.238 17.744.455 32.993 6.965 18.713 20.988 39.188 39.48 57.68 30.298 30.299 61.18 43.855 78.342 43.855 5.588 0 9.729-1.318 12.343-3.92 5.402-5.402 5.238-17.745-.455-32.994-6.965-18.713-20.988-39.188-39.479-57.68-30.3-30.286-61.182-43.854-78.343-43.854zM499.81 375.358a11.639 11.639 0 0 1-8.248-3.418 11.653 11.653 0 0 1 0-16.497c3.419-3.418 3.477-11.655.14-21.502-4.352-12.868-14.022-27.416-26.518-39.911-20.021-20.031-40.997-28.991-52.896-28.991-2.695 0-6.358.455-8.506 2.613-4.538 4.55-11.888 4.562-16.461.046l-.968-.957a11.71 11.71 0 0 1-3.465-8.26 11.62 11.62 0 0 1 3.418-8.284l89.506-89.506a11.734 11.734 0 0 1 6.219-3.244c5.495-3.453 12.203-5.25 19.763-5.25 20.697 0 47.297 13.732 69.382 35.829 15.179 15.167 26.577 32.55 32.13 48.93 6.476 19.145 4.434 35.304-5.763 45.488l-89.437 89.448c-.012.012-.023.035-.047.047a11.654 11.654 0 0 1-8.249 3.419zm-73.791-131.879c17.955 4.375 38.208 16.602 55.661 34.055 15.155 15.167 26.577 32.538 32.119 48.918a75.662 75.662 0 0 1 1.562 5.168l65.684-65.683c3.43-3.43 3.488-11.667.163-21.513-4.352-12.868-14.022-27.417-26.518-39.912-26.647-26.646-54.426-33.39-61.438-26.367a11.736 11.736 0 0 1-4.807 2.905l-62.426 62.429z"/><path d="M374.615 326.813a11.64 11.64 0 0 1-8.249-3.418 11.653 11.653 0 0 1 0-16.497l54.997-55.008a11.653 11.653 0 0 1 16.497 0c4.562 4.55 4.562 11.935 0 16.497l-54.997 55.008a11.633 11.633 0 0 1-8.248 3.418zM443.087 395.309a11.636 11.636 0 0 1-8.249-3.419 11.652 11.652 0 0 1 0-16.496l55.009-55.009a11.653 11.653 0 0 1 16.497 0 11.653 11.653 0 0 1 0 16.497l-55.009 55.008a11.636 11.636 0 0 1-8.248 3.419zM312.548 457.34a11.685 11.685 0 0 1-8.26-3.418c-4.55-4.562-4.55-11.946 0-16.497l52.278-52.243c4.562-4.562 11.947-4.562 16.509 0 4.55 4.562 4.55 11.946 0 16.497l-52.278 52.243a11.641 11.641 0 0 1-8.249 3.418z"/><path d="M336.535 514.623c-23.124 0-46.83-10.185-64.785-28.151-16.077-16.088-25.958-36.575-27.813-57.691-.56-6.429 4.177-12.087 10.605-12.646 6.499-.537 12.075 4.177 12.635 10.593 1.376 15.681 8.867 31.033 21.082 43.248 15.155 15.167 35.315 23.042 54.005 21.023 6.347-.699 12.157 3.932 12.845 10.36.688 6.405-3.943 12.156-10.349 12.845-2.73.291-5.483.419-8.225.419z"/><path d="M322.838 560.019c-31.757 0-63.28-13.207-87.337-37.264-24.698-24.71-38.255-57.972-37.193-91.245.21-6.439 5.787-11.899 12.029-11.281 6.44.21 11.491 5.588 11.293 12.028-.852 26.856 10.208 53.83 30.38 74.002 23.894 23.904 56.595 34.708 87.477 28.898 6.335-1.179 12.425 2.975 13.626 9.298 1.19 6.335-2.975 12.437-9.31 13.627a114.446 114.446 0 0 1-20.965 1.937zM385.068 237.727a11.637 11.637 0 0 1-8.249-3.418L243.318 100.807a11.684 11.684 0 0 1-3.418-8.248c0-3.092 1.225-6.067 3.418-8.249l80.908-80.908a11.653 11.653 0 0 1 16.497 0l133.501 133.501a11.658 11.658 0 0 1 3.419 8.249c0 3.091-1.226 6.066-3.419 8.248l-80.919 80.909a11.588 11.588 0 0 1-8.237 3.418zM268.063 92.559l117.005 117.005 64.412-64.412L332.475 28.147l-64.412 64.412zM665.698 518.333a11.615 11.615 0 0 1-8.248-3.418L523.96 381.401a11.652 11.652 0 0 1 0-16.496l80.908-80.908a11.653 11.653 0 0 1 16.497 0l133.502 133.501a11.643 11.643 0 0 1 3.418 8.249c0 3.103-1.226 6.066-3.418 8.248l-80.921 80.92a11.66 11.66 0 0 1-8.248 3.418zm-116.993-145.18l116.993 117.005 64.412-64.411-116.993-116.994-64.412 64.4z"/></g></svg>